<?xml version="1.0" standalone="no"?><!-- Generator: Gravit.io --><svg xmlns="http://www.w3.org/2000/svg" xmlns:xlink="http://www.w3.org/1999/xlink" style="isolation:isolate" viewBox="80.625 118.828 1677.575 388.595" width="1677.575" height="388.595"><g style="isolation:isolate"><path d=" M 153.745 337.29 L 211.341 326.244 C 240.316 320.688 286.427 324.148 314.248 333.967 L 327.024 338.477 C 354.845 348.296 381.136 360.966 385.698 366.754 L 385.698 366.754 C 390.26 372.542 377.286 384.518 356.743 393.482 L 356.743 393.482 C 336.2 402.446 298.046 399.117 271.593 386.054 L 269.783 385.161 C 243.33 372.097 202.448 366.532 178.545 372.741 L 178.545 372.741 C 154.642 378.949 120.136 380.773 101.536 376.811 L 101.536 376.811 C 82.937 372.848 75.322 364.641 84.541 358.495 L 84.541 358.495 C 93.761 352.349 124.77 342.847 153.745 337.29 Z " fill="rgb(238,238,238)"/><clipPath id="_clipPath_WvRgO9gGiA7qU9XxQqB0KuXRWsujZRJF"><path d=" M 153.745 337.29 L 211.341 326.244 C 240.316 320.688 286.427 324.148 314.248 333.967 L 327.024 338.477 C 354.845 348.296 381.136 360.966 385.698 366.754 L 385.698 366.754 C 390.26 372.542 377.286 384.518 356.743 393.482 L 356.743 393.482 C 336.2 402.446 298.046 399.117 271.593 386.054 L 269.783 385.161 C 243.33 372.097 202.448 366.532 178.545 372.741 L 178.545 372.741 C 154.642 378.949 120.136 380.773 101.536 376.811 L 101.536 376.811 C 82.937 372.848 75.322 364.641 84.541 358.495 L 84.541 358.495 C 93.761 352.349 124.77 342.847 153.745 337.29 Z " fill="rgb(238,238,238)"/></clipPath><g clip-path="url(#_clipPath_WvRgO9gGiA7qU9XxQqB0KuXRWsujZRJF)"><path d=" M 173.791 327.639 L 231.387 316.593 C 260.362 311.036 306.472 314.496 334.293 324.315 L 347.07 328.825 C 374.891 338.644 401.182 351.315 405.744 357.102 L 405.744 357.102 C 410.306 362.89 397.332 374.866 376.789 383.83 L 376.789 383.83 C 356.246 392.794 318.092 389.466 291.638 376.402 L 289.829 375.509 C 263.376 362.446 222.494 356.881 198.591 363.089 L 198.591 363.089 C 174.688 369.298 140.182 371.121 121.582 367.159 L 121.582 367.159 C 102.983 363.197 95.367 354.99 104.587 348.843 L 104.587 348.843 C 113.807 342.697 144.816 333.195 173.791 327.639 Z " fill="rgb(255,255,255)"/></g><path d=" M 684.597 249.234 L 723.196 241.831 C 742.613 238.107 773.515 240.426 792.159 247.007 L 800.722 250.029 C 819.366 256.609 850.411 264.093 870.006 266.731 L 876.617 267.621 C 896.212 270.258 896.437 275.818 877.119 280.029 L 830.696 290.146 C 811.378 294.357 785.996 296.103 774.051 294.043 L 774.051 294.043 C 762.105 291.984 738.362 293.321 721.062 297.029 L 721.062 297.029 C 703.762 300.736 675.671 296.388 658.371 287.326 L 658.371 287.326 C 641.07 278.264 632.041 267.563 638.22 263.444 L 638.22 263.444 C 644.398 259.325 665.179 252.957 684.597 249.234 Z " fill="rgb(238,238,238)"/><clipPath id="_clipPath_iZN1cVtsR6P8jt2xHcx4NO2Id5aGab73"><path d=" M 684.597 249.234 L 723.196 241.831 C 742.613 238.107 773.515 240.426 792.159 247.007 L 800.722 250.029 C 819.366 256.609 850.411 264.093 870.006 266.731 L 876.617 267.621 C 896.212 270.258 896.437 275.818 877.119 280.029 L 830.696 290.146 C 811.378 294.357 785.996 296.103 774.051 294.043 L 774.051 294.043 C 762.105 291.984 738.362 293.321 721.062 297.029 L 721.062 297.029 C 703.762 300.736 675.671 296.388 658.371 287.326 L 658.371 287.326 C 641.07 278.264 632.041 267.563 638.22 263.444 L 638.22 263.444 C 644.398 259.325 665.179 252.957 684.597 249.234 Z " fill="rgb(238,238,238)"/></clipPath><g clip-path="url(#_clipPath_iZN1cVtsR6P8jt2xHcx4NO2Id5aGab73)"><path d=" M 697.218 238.097 L 735.817 230.695 C 755.235 226.971 786.136 229.29 804.781 235.87 L 813.343 238.892 C 831.987 245.472 863.033 252.956 882.628 255.594 L 889.239 256.484 C 908.833 259.122 909.058 264.682 889.74 268.892 L 843.317 279.01 C 823.999 283.22 798.617 284.966 786.672 282.907 L 786.672 282.907 C 774.727 280.847 750.983 282.185 733.683 285.892 L 733.683 285.892 C 716.383 289.599 688.292 285.252 670.992 276.19 L 670.992 276.19 C 653.692 267.128 644.663 256.427 650.841 252.308 L 650.841 252.308 C 657.02 248.188 677.801 241.821 697.218 238.097 Z " fill="rgb(255,255,255)"/></g><path d=" M 1244.623 422.675 L 1244.623 422.675 C 1269.457 430.435 1311.798 431.948 1339.115 426.05 L 1339.115 426.05 C 1366.433 420.151 1411.581 422.154 1439.873 430.519 L 1466.713 438.454 C 1495.005 446.819 1496.452 464.121 1469.941 477.068 L 1469.266 477.397 C 1442.756 490.344 1397.795 502.872 1368.925 505.355 L 1368.925 505.355 C 1340.056 507.839 1295.629 508.125 1269.778 505.994 L 1269.778 505.994 C 1243.927 503.863 1201.981 491.155 1176.166 477.633 L 1176.166 477.633 C 1150.351 464.111 1145.128 443.159 1164.51 430.873 L 1164.51 430.873 C 1183.892 418.588 1219.789 414.914 1244.623 422.675 Z " fill="rgb(238,238,238)"/><clipPath id="_clipPath_g20OrZhX2WlTynsgVc8imOYvxDwOCWlO"><path d=" M 1244.623 422.675 L 1244.623 422.675 C 1269.457 430.435 1311.798 431.948 1339.115 426.05 L 1339.115 426.05 C 1366.433 420.151 1411.581 422.154 1439.873 430.519 L 1466.713 438.454 C 1495.005 446.819 1496.452 464.121 1469.941 477.068 L 1469.266 477.397 C 1442.756 490.344 1397.795 502.872 1368.925 505.355 L 1368.925 505.355 C 1340.056 507.839 1295.629 508.125 1269.778 505.994 L 1269.778 505.994 C 1243.927 503.863 1201.981 491.155 1176.166 477.633 L 1176.166 477.633 C 1150.351 464.111 1145.128 443.159 1164.51 430.873 L 1164.51 430.873 C 1183.892 418.588 1219.789 414.914 1244.623 422.675 Z " fill="rgb(238,238,238)"/></clipPath><g clip-path="url(#_clipPath_g20OrZhX2WlTynsgVc8imOYvxDwOCWlO)"><path d=" M 1255.76 413.766 L 1255.76 413.766 C 1280.594 421.526 1322.934 423.038 1350.252 417.14 L 1350.252 417.14 C 1377.569 411.242 1422.717 413.245 1451.009 421.609 L 1477.849 429.545 C 1506.142 437.909 1506.509 452.628 1478.668 462.392 L 1475.919 463.357 C 1448.079 473.121 1403.582 485.506 1376.615 490.997 L 1376.615 490.997 C 1349.648 496.488 1307.564 496.488 1282.697 490.997 L 1282.697 490.997 C 1257.829 485.506 1215.883 472.798 1189.085 462.636 L 1189.085 462.636 C 1162.286 452.474 1156.265 434.249 1175.647 421.964 L 1175.647 421.964 C 1195.028 409.678 1230.926 406.005 1255.76 413.766 Z " fill="rgb(255,255,255)"/></g><path d=" M 1685.399 193.052 L 1627.523 202.524 C 1598.408 207.289 1552.408 202.572 1524.865 191.998 L 1512.216 187.142 C 1484.673 176.568 1444.857 163.137 1423.357 157.168 L 1423.357 157.168 C 1401.857 151.198 1407.793 141.2 1436.606 134.856 L 1469.453 127.623 C 1498.266 121.278 1536.056 119.016 1553.79 122.574 L 1553.79 122.574 C 1571.524 126.132 1606.995 125.102 1632.952 120.276 L 1632.952 120.276 C 1658.908 115.45 1700.632 123.078 1726.069 137.299 L 1726.069 137.299 C 1751.506 151.52 1764.539 167.849 1755.155 173.742 L 1755.155 173.742 C 1745.771 179.635 1714.515 188.288 1685.399 193.052 Z " fill="rgb(238,238,238)"/><clipPath id="_clipPath_j4eqkJ5zXAEouAuaGZRe1ha1B5ai0kx1"><path d=" M 1685.399 193.052 L 1627.523 202.524 C 1598.408 207.289 1552.408 202.572 1524.865 191.998 L 1512.216 187.142 C 1484.673 176.568 1444.857 163.137 1423.357 157.168 L 1423.357 157.168 C 1401.857 151.198 1407.793 141.2 1436.606 134.856 L 1469.453 127.623 C 1498.266 121.278 1536.056 119.016 1553.79 122.574 L 1553.79 122.574 C 1571.524 126.132 1606.995 125.102 1632.952 120.276 L 1632.952 120.276 C 1658.908 115.45 1700.632 123.078 1726.069 137.299 L 1726.069 137.299 C 1751.506 151.52 1764.539 167.849 1755.155 173.742 L 1755.155 173.742 C 1745.771 179.635 1714.515 188.288 1685.399 193.052 Z " fill="rgb(238,238,238)"/></clipPath><g clip-path="url(#_clipPath_j4eqkJ5zXAEouAuaGZRe1ha1B5ai0kx1)"><path d=" M 1700.248 180.431 L 1642.372 189.902 C 1613.256 194.667 1567.257 189.951 1539.714 179.377 L 1527.065 174.521 C 1499.522 163.947 1458.624 151.597 1435.792 146.959 L 1435.792 146.959 C 1412.961 142.321 1417.679 132.819 1446.324 125.753 L 1484.607 116.309 C 1513.251 109.242 1550.905 106.394 1568.639 109.952 L 1568.639 109.952 C 1586.373 113.51 1621.844 112.481 1647.8 107.655 L 1647.8 107.655 C 1673.756 102.829 1715.481 110.456 1740.918 124.677 L 1740.918 124.677 C 1766.355 138.898 1779.387 155.228 1770.004 161.121 L 1770.004 161.121 C 1760.62 167.014 1729.363 175.666 1700.248 180.431 Z " fill="rgb(255,255,255)"/></g></g></svg>