<?xml version="1.0" standalone="no"?><!-- Generator: Gravit.io --><svg xmlns="http://www.w3.org/2000/svg" xmlns:xlink="http://www.w3.org/1999/xlink" style="isolation:isolate" viewBox="0 323.608 1920 756.392" width="1920" height="756.392"><path d=" M 501.946 350.571 L 614.4 556.2 L 736.226 410.444 C 761.71 379.954 802.425 380.495 827.091 411.651 L 953.4 571.2 L 1089.214 376.457 C 1111.945 343.862 1149.301 343.546 1172.581 375.75 L 1313.249 570.338 L 1412.736 430.121 C 1435.731 397.712 1469.668 399.821 1488.474 434.827 L 1569.656 585.945 L 1729.707 391.043 C 1754.926 360.333 1793.428 362.155 1815.633 395.11 L 1920 550 L 1920 1080 L 0 1080 L 0 550 L 117.455 360.59 C 138.398 326.818 172.22 326.93 192.939 360.84 L 303.229 541.353 L 428.311 347.865 C 449.885 314.494 482.88 315.706 501.946 350.571 Z " fill="rgb(179,210,221)"/></svg>