<?xml version="1.0" standalone="no"?><!-- Generator: Gravit.io --><svg xmlns="http://www.w3.org/2000/svg" xmlns:xlink="http://www.w3.org/1999/xlink" style="isolation:isolate" viewBox="36.682 549 1854.568 473.121" width="1854.568" height="473.121"><g style="isolation:isolate"><g><path d=" M 834.671 786.299 C 830.065 790.582 823.023 793.323 815.137 793.323 C 808.116 793.323 801.764 791.15 797.204 787.651 C 792.945 793.53 784.657 797.522 775.139 797.522 C 767.983 797.522 761.522 795.265 756.947 791.646 C 752.569 794.438 746.905 796.122 740.723 796.122 C 736.881 796.122 733.239 795.472 729.982 794.309 C 726.297 795.908 722.024 796.822 717.468 796.822 C 707.209 796.822 698.378 792.184 694.482 785.545 C 689.922 789.048 683.566 791.223 676.54 791.223 C 662.679 791.223 651.426 782.756 651.426 772.327 C 651.426 771.737 651.462 771.154 651.532 770.578 C 641.726 768.004 634.682 760.981 634.682 752.73 C 634.682 744.25 642.123 737.067 652.357 734.679 C 652.356 734.631 652.356 734.582 652.356 734.534 C 652.356 724.104 663.609 715.637 677.471 715.637 C 691.306 715.637 702.543 724.073 702.585 734.475 C 707.238 735.873 711.207 738.289 714.002 741.356 C 717.744 739.69 722.11 738.733 726.77 738.733 C 740.631 738.733 751.885 747.2 751.885 757.629 C 751.885 758.505 751.805 759.367 751.653 760.211 C 754.386 761.208 756.844 762.567 758.916 764.204 C 763.294 761.413 768.957 759.729 775.139 759.729 C 782.16 759.729 788.512 761.901 793.072 765.401 C 797.331 759.522 805.619 755.53 815.137 755.53 C 823.023 755.53 830.065 758.27 834.671 762.554 C 839.276 758.27 846.318 755.53 854.204 755.53 C 868.066 755.53 879.319 763.997 879.319 774.426 C 879.319 784.856 868.066 793.323 854.204 793.323 C 846.318 793.323 839.276 790.582 834.671 786.299 Z " fill-rule="evenodd" fill="rgb(80,174,97)"/><path d=" M 749.382 761.664 L 807.983 761.664 C 792.829 893.684 792.831 976.162 807.983 1009.091 L 749.382 1009.091 C 766.25 987.919 766.252 905.446 749.382 761.664 Z " fill="rgb(149,137,112)"/><clipPath id="_clipPath_ILlkthRYIS02LAUsYWTwn6uMfICo7LRA"><path d=" M 749.382 761.664 L 807.983 761.664 C 792.829 893.684 792.831 976.162 807.983 1009.091 L 749.382 1009.091 C 766.25 987.919 766.252 905.446 749.382 761.664 Z " fill="rgb(149,137,112)"/></clipPath><g clip-path="url(#_clipPath_ILlkthRYIS02LAUsYWTwn6uMfICo7LRA)"><path d=" M 789.898 1032.641 C 788.946 1010.261 791.352 988.756 790.736 968.092 C 790.037 944.628 782.409 908.429 782.143 887.178 C 781.774 857.586 788.546 842.749 789.018 817.448 C 789.489 792.148 787.619 770.208 788.932 749.198 L 824.699 788.421 L 823.249 1020.8 L 789.898 1032.641 Z " fill="rgb(149,137,112)"/><path d=" M 733.187 1031.983 L 732.22 748.54 L 766.677 743.113 C 767.574 763.596 770.969 778.94 771.403 801.002 C 771.875 825.061 766.756 854.006 766.677 879.942 C 766.607 902.675 772.327 930.102 771.832 954.277 C 771.382 976.298 767.34 996.925 766.537 1020.142 L 733.187 1031.983 Z " fill="rgb(149,137,112)"/></g><path d=" M 876.633 746.401 C 888.822 747.696 898.21 755.585 898.21 765.111 C 898.21 774.601 888.894 782.466 876.773 783.806 C 872.215 788.589 864.764 791.707 856.352 791.707 C 842.491 791.707 831.238 783.239 831.238 772.81 C 831.238 771.741 831.356 770.693 831.583 769.672 C 831.305 769.04 831.069 768.394 830.879 767.735 C 826.393 772.896 818.644 776.309 809.844 776.309 C 800.496 776.309 792.334 772.459 788.011 766.752 C 783.761 769.233 778.426 770.71 772.636 770.71 C 764.281 770.71 756.873 767.634 752.306 762.905 C 748.644 769.93 739.548 774.91 728.918 774.91 C 720.32 774.91 712.725 771.652 708.198 766.688 C 704.456 768.354 700.091 769.311 695.432 769.311 C 681.596 769.311 670.359 760.875 670.317 750.473 C 661.055 747.69 654.504 740.874 654.504 732.917 C 654.504 727.455 657.591 722.53 662.524 719.079 C 661.547 717.064 661.015 714.889 661.015 712.621 C 661.015 703.062 670.468 695.152 682.718 693.898 C 682.515 692.929 682.409 691.936 682.409 690.925 C 682.409 680.496 693.663 672.028 707.524 672.028 C 717.409 672.028 725.967 676.334 730.064 682.587 C 734.192 680.347 739.258 679.027 744.731 679.027 C 752.713 679.027 759.831 681.835 764.431 686.209 C 767.513 685.19 770.918 684.626 774.497 684.626 C 785.598 684.626 795.027 690.057 798.341 697.577 C 801.555 696.452 805.137 695.824 808.913 695.824 C 822.775 695.824 834.028 704.291 834.028 714.721 C 834.028 714.959 834.022 715.197 834.01 715.433 L 834.01 715.433 C 834.325 715.425 834.641 715.42 834.958 715.42 C 844.691 715.42 853.138 719.595 857.306 725.693 C 868.473 727.61 876.816 735.135 876.816 744.115 C 876.816 744.889 876.754 745.652 876.633 746.401 Z " fill-rule="evenodd" fill="rgb(80,174,97)"/><path d=" M 859.742 667.17 C 870.909 669.087 879.252 676.613 879.252 685.593 C 879.252 687.598 878.836 689.531 878.065 691.345 C 886.97 694.25 893.205 700.926 893.205 708.688 C 893.205 709.13 893.185 709.568 893.145 710.001 L 893.145 710.001 C 900.426 713.311 905.297 719.323 905.297 726.185 C 905.297 729.585 904.102 732.776 902.009 735.533 L 902.009 735.533 C 912.018 738.02 919.25 745.12 919.25 753.48 C 919.25 762.783 910.296 770.525 898.523 772.088 C 894.054 777.313 886.256 780.775 877.392 780.775 C 863.531 780.775 852.277 772.308 852.277 761.879 C 852.277 761.105 852.339 760.342 852.463 759.593 L 852.463 759.593 C 846.688 758.98 841.541 756.886 837.724 753.839 C 833.13 758.304 825.938 761.179 817.861 761.179 C 803.999 761.179 792.746 752.712 792.746 742.282 C 792.746 740.32 793.144 738.427 793.885 736.647 C 790.042 738.444 785.508 739.483 780.654 739.483 C 775.704 739.483 771.086 738.403 767.196 736.539 C 763.8 743.951 754.444 749.281 743.446 749.281 C 734.896 749.281 727.338 746.059 722.801 741.142 C 721.062 741.431 719.255 741.582 717.401 741.582 C 706.069 741.582 696.479 735.923 693.362 728.157 C 692.399 728.241 691.419 728.285 690.426 728.285 C 676.565 728.285 665.311 719.818 665.311 709.388 C 665.311 699.83 674.764 691.919 687.014 690.665 L 687.014 690.665 L 687.014 690.665 C 686.811 689.697 686.706 688.704 686.706 687.692 C 686.706 678.952 694.61 671.589 705.329 669.434 L 705.329 669.434 L 705.329 669.434 C 705.861 659.357 716.901 651.299 730.424 651.299 C 737.159 651.299 743.278 653.298 747.787 656.552 L 747.787 656.552 C 748.422 656.188 749.081 655.847 749.761 655.529 L 749.761 655.529 C 753.866 649.292 762.413 645 772.282 645 C 779.697 645 786.366 647.423 790.964 651.274 C 795.27 648.662 800.743 647.1 806.698 647.1 C 816.7 647.1 825.345 651.508 829.38 657.883 C 831.897 657.244 834.592 656.898 837.394 656.898 C 847.127 656.898 855.574 661.072 859.742 667.17 Z  M 826.868 695.631 C 826.907 695.65 826.946 695.669 826.984 695.688 C 826.997 695.65 827.01 695.612 827.023 695.575 C 826.972 695.594 826.92 695.613 826.868 695.631 L 826.868 695.631 L 826.868 695.631 L 826.868 695.631 L 826.868 695.631 L 826.868 695.631 L 826.868 695.631 L 826.868 695.631 L 826.868 695.631 L 826.868 695.631 L 826.868 695.631 L 826.868 695.631 L 826.868 695.631 L 826.868 695.631 L 826.868 695.631 L 826.868 695.631 Z " fill-rule="evenodd" fill="rgb(104,191,120)"/></g><g><path d=" M 554.671 690.299 C 550.065 694.582 543.023 697.323 535.137 697.323 C 528.116 697.323 521.764 695.15 517.204 691.651 C 512.945 697.53 504.657 701.522 495.139 701.522 C 487.983 701.522 481.522 699.265 476.947 695.646 C 472.569 698.438 466.905 700.122 460.723 700.122 C 456.881 700.122 453.239 699.472 449.982 698.309 C 446.297 699.908 442.024 700.822 437.468 700.822 C 427.209 700.822 418.378 696.184 414.482 689.545 C 409.922 693.048 403.566 695.223 396.54 695.223 C 382.679 695.223 371.426 686.756 371.426 676.327 C 371.426 675.737 371.462 675.154 371.532 674.578 C 361.726 672.004 354.682 664.981 354.682 656.73 C 354.682 648.25 362.123 641.067 372.357 638.679 C 372.356 638.631 372.356 638.582 372.356 638.534 C 372.356 628.104 383.609 619.637 397.471 619.637 C 411.306 619.637 422.543 628.073 422.585 638.475 C 427.238 639.873 431.207 642.289 434.002 645.356 C 437.744 643.69 442.11 642.733 446.77 642.733 C 460.631 642.733 471.885 651.2 471.885 661.629 C 471.885 662.505 471.805 663.367 471.653 664.211 C 474.386 665.208 476.844 666.567 478.916 668.204 C 483.294 665.413 488.957 663.729 495.139 663.729 C 502.16 663.729 508.512 665.901 513.072 669.401 C 517.331 663.522 525.619 659.53 535.137 659.53 C 543.023 659.53 550.065 662.27 554.671 666.554 C 559.276 662.27 566.318 659.53 574.204 659.53 C 588.066 659.53 599.319 667.997 599.319 678.426 C 599.319 688.856 588.066 697.323 574.204 697.323 C 566.318 697.323 559.276 694.582 554.671 690.299 Z " fill-rule="evenodd" fill="rgb(80,174,97)"/><path d=" M 469.382 665.664 L 527.983 665.664 C 512.829 800.4 512.831 884.575 527.983 918.182 L 469.382 918.182 C 486.25 896.575 486.252 812.405 469.382 665.664 Z " fill="rgb(149,137,112)"/><clipPath id="_clipPath_ecb4xCZGcNVj1Ba9bAfVM36JE9zMWq97"><path d=" M 469.382 665.664 L 527.983 665.664 C 512.829 800.4 512.831 884.575 527.983 918.182 L 469.382 918.182 C 486.25 896.575 486.252 812.405 469.382 665.664 Z " fill="rgb(149,137,112)"/></clipPath><g clip-path="url(#_clipPath_ecb4xCZGcNVj1Ba9bAfVM36JE9zMWq97)"><path d=" M 509.898 942.217 C 508.946 919.375 511.352 897.428 510.736 876.339 C 510.037 852.392 502.409 815.449 502.143 793.761 C 501.774 763.56 508.546 748.417 509.018 722.596 C 509.489 696.775 507.619 674.383 508.932 652.942 L 544.699 692.972 L 543.249 930.132 L 509.898 942.217 Z " fill="rgb(149,137,112)"/><path d=" M 453.187 941.545 L 452.22 652.27 L 486.677 646.732 C 487.574 667.635 490.969 683.296 491.403 705.812 C 491.875 730.365 486.756 759.906 486.677 786.376 C 486.607 809.576 492.327 837.568 491.832 862.24 C 491.382 884.714 487.34 905.765 486.537 929.461 L 453.187 941.545 Z " fill="rgb(149,137,112)"/></g><path d=" M 596.633 650.401 C 608.822 651.696 618.21 659.585 618.21 669.111 C 618.21 678.601 608.894 686.466 596.773 687.806 C 592.215 692.589 584.764 695.707 576.352 695.707 C 562.491 695.707 551.238 687.239 551.238 676.81 C 551.238 675.741 551.356 674.693 551.583 673.672 C 551.305 673.04 551.069 672.394 550.879 671.735 C 546.393 676.896 538.644 680.309 529.844 680.309 C 520.496 680.309 512.334 676.459 508.011 670.752 C 503.761 673.233 498.426 674.71 492.636 674.71 C 484.281 674.71 476.873 671.634 472.306 666.905 C 468.644 673.93 459.548 678.91 448.918 678.91 C 440.32 678.91 432.725 675.652 428.198 670.688 C 424.456 672.354 420.091 673.311 415.432 673.311 C 401.596 673.311 390.359 664.875 390.317 654.473 C 381.055 651.69 374.504 644.874 374.504 636.917 C 374.504 631.455 377.591 626.53 382.524 623.079 C 381.547 621.064 381.015 618.889 381.015 616.621 C 381.015 607.062 390.468 599.152 402.718 597.898 C 402.515 596.929 402.409 595.936 402.409 594.925 C 402.409 584.496 413.663 576.028 427.524 576.028 C 437.409 576.028 445.967 580.334 450.064 586.587 C 454.192 584.347 459.258 583.027 464.731 583.027 C 472.713 583.027 479.831 585.835 484.431 590.209 C 487.513 589.19 490.918 588.626 494.497 588.626 C 505.598 588.626 515.027 594.057 518.341 601.577 C 521.555 600.452 525.137 599.824 528.913 599.824 C 542.775 599.824 554.028 608.291 554.028 618.721 C 554.028 618.959 554.022 619.197 554.01 619.433 L 554.01 619.433 C 554.325 619.425 554.641 619.42 554.958 619.42 C 564.691 619.42 573.138 623.595 577.306 629.693 C 588.473 631.61 596.816 639.135 596.816 648.115 C 596.816 648.889 596.754 649.652 596.633 650.401 Z " fill-rule="evenodd" fill="rgb(80,174,97)"/><path d=" M 579.742 571.17 C 590.909 573.087 599.252 580.613 599.252 589.593 C 599.252 591.598 598.836 593.531 598.065 595.345 C 606.97 598.25 613.205 604.926 613.205 612.688 C 613.205 613.13 613.185 613.568 613.145 614.001 L 613.145 614.001 C 620.426 617.311 625.297 623.323 625.297 630.185 C 625.297 633.585 624.102 636.776 622.009 639.533 L 622.009 639.533 C 632.018 642.02 639.25 649.12 639.25 657.48 C 639.25 666.783 630.296 674.525 618.523 676.088 C 614.054 681.313 606.256 684.775 597.392 684.775 C 583.531 684.775 572.277 676.308 572.277 665.879 C 572.277 665.105 572.339 664.342 572.463 663.593 L 572.463 663.593 C 566.688 662.98 561.541 660.886 557.724 657.839 C 553.13 662.304 545.938 665.179 537.861 665.179 C 523.999 665.179 512.746 656.712 512.746 646.282 C 512.746 644.32 513.144 642.427 513.885 640.647 C 510.042 642.444 505.508 643.483 500.654 643.483 C 495.704 643.483 491.086 642.403 487.196 640.539 C 483.8 647.951 474.444 653.281 463.446 653.281 C 454.896 653.281 447.338 650.059 442.801 645.142 C 441.062 645.431 439.255 645.582 437.401 645.582 C 426.069 645.582 416.479 639.923 413.362 632.157 C 412.399 632.241 411.419 632.285 410.426 632.285 C 396.565 632.285 385.311 623.818 385.311 613.388 C 385.311 603.83 394.764 595.919 407.014 594.665 L 407.014 594.665 L 407.014 594.665 C 406.811 593.697 406.706 592.704 406.706 591.692 C 406.706 582.952 414.61 575.589 425.329 573.434 L 425.329 573.434 L 425.329 573.434 C 425.861 563.357 436.901 555.299 450.424 555.299 C 457.159 555.299 463.278 557.298 467.787 560.552 L 467.787 560.552 C 468.422 560.188 469.081 559.847 469.761 559.529 L 469.761 559.529 C 473.866 553.292 482.413 549 492.282 549 C 499.697 549 506.366 551.423 510.964 555.274 C 515.27 552.662 520.743 551.1 526.698 551.1 C 536.7 551.1 545.345 555.508 549.38 561.883 C 551.897 561.244 554.592 560.898 557.394 560.898 C 567.127 560.898 575.574 565.072 579.742 571.17 Z  M 546.868 599.631 C 546.907 599.65 546.946 599.669 546.984 599.688 C 546.997 599.65 547.01 599.612 547.023 599.575 C 546.972 599.594 546.92 599.613 546.868 599.631 L 546.868 599.631 L 546.868 599.631 L 546.868 599.631 L 546.868 599.631 L 546.868 599.631 L 546.868 599.631 L 546.868 599.631 L 546.868 599.631 L 546.868 599.631 L 546.868 599.631 L 546.868 599.631 L 546.868 599.631 L 546.868 599.631 L 546.868 599.631 L 546.868 599.631 Z " fill-rule="evenodd" fill="rgb(104,191,120)"/></g><g><path d=" M 236.671 754.299 C 232.065 758.582 225.023 761.323 217.137 761.323 C 210.116 761.323 203.764 759.15 199.204 755.651 C 194.945 761.53 186.657 765.522 177.139 765.522 C 169.983 765.522 163.522 763.265 158.947 759.646 C 154.569 762.438 148.905 764.122 142.723 764.122 C 138.881 764.122 135.239 763.472 131.982 762.309 C 128.297 763.908 124.024 764.822 119.468 764.822 C 109.209 764.822 100.378 760.184 96.482 753.545 C 91.922 757.048 85.566 759.223 78.54 759.223 C 64.679 759.223 53.426 750.756 53.426 740.327 C 53.426 739.737 53.462 739.154 53.532 738.578 C 43.726 736.004 36.682 728.981 36.682 720.73 C 36.682 712.25 44.123 705.067 54.357 702.679 C 54.356 702.631 54.356 702.582 54.356 702.534 C 54.356 692.104 65.609 683.637 79.471 683.637 C 93.306 683.637 104.543 692.073 104.585 702.475 C 109.238 703.873 113.207 706.289 116.002 709.356 C 119.744 707.69 124.11 706.733 128.77 706.733 C 142.631 706.733 153.885 715.2 153.885 725.629 C 153.885 726.505 153.805 727.367 153.653 728.211 C 156.386 729.208 158.844 730.567 160.916 732.204 C 165.294 729.413 170.957 727.729 177.139 727.729 C 184.16 727.729 190.512 729.901 195.072 733.401 C 199.331 727.522 207.619 723.53 217.137 723.53 C 225.023 723.53 232.065 726.27 236.671 730.554 C 241.276 726.27 248.318 723.53 256.204 723.53 C 270.066 723.53 281.319 731.997 281.319 742.426 C 281.319 752.856 270.066 761.323 256.204 761.323 C 248.318 761.323 241.276 758.582 236.671 754.299 Z " fill-rule="evenodd" fill="rgb(80,174,97)"/><path d=" M 151.382 729.664 L 209.983 729.664 C 194.829 830.51 194.831 893.513 209.983 918.667 L 151.382 918.667 C 168.25 902.494 168.252 839.495 151.382 729.664 Z " fill="rgb(149,137,112)"/><clipPath id="_clipPath_2WrPvJBZI9CoJS4ciYqAkkmAodg53L1m"><path d=" M 151.382 729.664 L 209.983 729.664 C 194.829 830.51 194.831 893.513 209.983 918.667 L 151.382 918.667 C 168.25 902.494 168.252 839.495 151.382 729.664 Z " fill="rgb(149,137,112)"/></clipPath><g clip-path="url(#_clipPath_2WrPvJBZI9CoJS4ciYqAkkmAodg53L1m)"><path d=" M 191.898 936.656 C 190.946 919.56 193.352 903.133 192.736 887.348 C 192.037 869.425 184.409 841.774 184.143 825.541 C 183.774 802.936 190.546 791.603 191.018 772.276 C 191.489 752.95 189.619 736.19 190.932 720.142 L 226.699 750.103 L 225.249 927.611 L 191.898 936.656 Z " fill="rgb(149,137,112)"/><path d=" M 135.187 936.154 L 134.22 719.639 L 168.677 715.494 C 169.574 731.14 172.969 742.861 173.403 759.714 C 190.88 781.315 185.771 803.441 168.677 820.014 C 168.607 837.378 174.327 858.329 173.832 876.796 C 173.382 893.617 169.34 909.373 168.537 927.109 L 135.187 936.154 Z " fill="rgb(149,137,112)"/></g><path d=" M 278.633 714.401 C 290.822 715.696 300.21 723.585 300.21 733.111 C 300.21 742.601 290.894 750.466 278.773 751.806 C 274.215 756.589 266.764 759.707 258.352 759.707 C 244.491 759.707 233.238 751.239 233.238 740.81 C 233.238 739.741 233.356 738.693 233.583 737.672 C 233.305 737.04 233.069 736.394 232.879 735.735 C 228.393 740.896 220.644 744.309 211.844 744.309 C 202.496 744.309 194.334 740.459 190.011 734.752 C 185.761 737.233 180.426 738.71 174.636 738.71 C 166.281 738.71 158.873 735.634 154.306 730.905 C 150.644 737.93 141.548 742.91 130.918 742.91 C 122.32 742.91 114.725 739.652 110.198 734.688 C 106.456 736.354 102.091 737.311 97.432 737.311 C 83.596 737.311 72.359 728.875 72.317 718.473 C 63.055 715.69 56.504 708.874 56.504 700.917 C 56.504 695.455 59.591 690.53 64.524 687.079 C 63.547 685.064 63.015 682.889 63.015 680.621 C 63.015 671.062 72.468 663.152 84.718 661.898 C 84.515 660.929 84.409 659.936 84.409 658.925 C 84.409 648.496 95.663 640.028 109.524 640.028 C 119.409 640.028 127.967 644.334 132.064 650.587 C 136.192 648.347 141.258 647.027 146.731 647.027 C 154.713 647.027 161.831 649.835 166.431 654.209 C 169.513 653.19 172.918 652.626 176.497 652.626 C 187.598 652.626 197.027 658.057 200.341 665.577 C 203.555 664.452 207.137 663.824 210.913 663.824 C 224.775 663.824 236.028 672.291 236.028 682.721 C 236.028 682.959 236.022 683.197 236.01 683.433 L 236.01 683.433 C 236.325 683.425 236.641 683.42 236.958 683.42 C 246.691 683.42 255.138 687.595 259.306 693.693 C 270.473 695.61 278.816 703.135 278.816 712.115 C 278.816 712.889 278.754 713.652 278.633 714.401 Z " fill-rule="evenodd" fill="rgb(80,174,97)"/><path d=" M 261.742 635.17 C 272.909 637.087 281.252 644.613 281.252 653.593 C 281.252 655.598 280.836 657.531 280.065 659.345 C 288.97 662.25 295.205 668.926 295.205 676.688 C 295.205 677.13 295.185 677.568 295.145 678.001 L 295.145 678.001 C 302.426 681.311 307.297 687.323 307.297 694.185 C 307.297 697.585 306.102 700.776 304.009 703.533 L 304.009 703.533 C 314.018 706.02 321.25 713.12 321.25 721.48 C 321.25 730.783 312.296 738.525 300.523 740.088 C 296.054 745.313 288.256 748.775 279.392 748.775 C 265.531 748.775 254.277 740.308 254.277 729.879 C 254.277 729.105 254.339 728.342 254.463 727.593 L 254.463 727.593 C 248.688 726.98 243.541 724.886 239.724 721.839 C 235.13 726.304 227.938 729.179 219.861 729.179 C 205.999 729.179 194.746 720.712 194.746 710.282 C 194.746 708.32 195.144 706.427 195.885 704.647 C 192.042 706.444 187.508 707.483 182.654 707.483 C 177.704 707.483 173.086 706.403 169.196 704.539 C 165.8 711.951 156.444 717.281 145.446 717.281 C 136.896 717.281 129.338 714.059 124.801 709.142 C 123.062 709.431 121.255 709.582 119.401 709.582 C 108.069 709.582 98.479 703.923 95.362 696.157 C 94.399 696.241 93.419 696.285 92.426 696.285 C 78.565 696.285 67.311 687.818 67.311 677.388 C 67.311 667.83 76.764 659.919 89.014 658.665 L 89.014 658.665 L 89.014 658.665 C 88.811 657.697 88.706 656.704 88.706 655.692 C 88.706 646.952 96.61 639.589 107.329 637.434 L 107.329 637.434 L 107.329 637.434 C 107.861 627.357 118.901 619.299 132.424 619.299 C 139.159 619.299 145.278 621.298 149.787 624.552 L 149.787 624.552 C 150.422 624.188 151.081 623.847 151.761 623.529 L 151.761 623.529 C 155.866 617.292 164.413 613 174.282 613 C 181.697 613 188.366 615.423 192.964 619.274 C 197.27 616.662 202.743 615.1 208.698 615.1 C 218.7 615.1 227.345 619.508 231.38 625.883 C 233.897 625.244 236.592 624.898 239.394 624.898 C 249.127 624.898 257.574 629.072 261.742 635.17 Z  M 228.868 663.631 C 228.907 663.65 228.946 663.669 228.984 663.688 C 228.997 663.65 229.01 663.612 229.023 663.575 C 228.972 663.594 228.92 663.613 228.868 663.631 L 228.868 663.631 L 228.868 663.631 L 228.868 663.631 L 228.868 663.631 L 228.868 663.631 L 228.868 663.631 L 228.868 663.631 L 228.868 663.631 L 228.868 663.631 L 228.868 663.631 L 228.868 663.631 L 228.868 663.631 L 228.868 663.631 L 228.868 663.631 L 228.868 663.631 Z " fill-rule="evenodd" fill="rgb(104,191,120)"/></g><g><path d=" M 1170.671 760.299 C 1166.065 764.582 1159.023 767.323 1151.137 767.323 C 1144.116 767.323 1137.764 765.15 1133.204 761.651 C 1128.945 767.53 1120.657 771.522 1111.139 771.522 C 1103.983 771.522 1097.522 769.265 1092.947 765.646 C 1088.569 768.438 1082.905 770.122 1076.723 770.122 C 1072.881 770.122 1069.239 769.472 1065.982 768.309 C 1062.297 769.908 1058.024 770.822 1053.468 770.822 C 1043.209 770.822 1034.378 766.184 1030.482 759.545 C 1025.922 763.048 1019.566 765.223 1012.54 765.223 C 998.679 765.223 987.426 756.756 987.426 746.327 C 987.426 745.737 987.462 745.154 987.532 744.578 C 977.726 742.004 970.682 734.981 970.682 726.73 C 970.682 718.25 978.123 711.067 988.357 708.679 C 988.356 708.631 988.356 708.582 988.356 708.534 C 988.356 698.104 999.609 689.637 1013.471 689.637 C 1027.306 689.637 1038.543 698.073 1038.585 708.475 C 1043.238 709.873 1047.207 712.289 1050.002 715.356 C 1053.744 713.69 1058.11 712.733 1062.77 712.733 C 1076.631 712.733 1087.885 721.2 1087.885 731.629 C 1087.885 732.505 1087.805 733.367 1087.653 734.211 C 1090.386 735.208 1092.844 736.567 1094.916 738.204 C 1099.294 735.413 1104.957 733.729 1111.139 733.729 C 1118.16 733.729 1124.512 735.901 1129.072 739.401 C 1133.331 733.522 1141.619 729.53 1151.137 729.53 C 1159.023 729.53 1166.065 732.27 1170.671 736.554 C 1175.276 732.27 1182.318 729.53 1190.204 729.53 C 1204.066 729.53 1215.319 737.997 1215.319 748.426 C 1215.319 758.856 1204.066 767.323 1190.204 767.323 C 1182.318 767.323 1175.276 764.582 1170.671 760.299 Z " fill-rule="evenodd" fill="rgb(80,174,97)"/><path d=" M 1085.382 735.664 L 1143.983 735.664 C 1128.829 888.509 1128.831 983.998 1143.983 1022.121 L 1085.382 1022.121 C 1102.25 997.61 1102.252 902.127 1085.382 735.664 Z " fill="rgb(149,137,112)"/><clipPath id="_clipPath_SaUD0vEf25MRwnBIzEF82QlXU0YrgTWN"><path d=" M 1085.382 735.664 L 1143.983 735.664 C 1128.829 888.509 1128.831 983.998 1143.983 1022.121 L 1085.382 1022.121 C 1102.25 997.61 1102.252 902.127 1085.382 735.664 Z " fill="rgb(149,137,112)"/></clipPath><g clip-path="url(#_clipPath_SaUD0vEf25MRwnBIzEF82QlXU0YrgTWN)"><path d=" M 1125.898 1049.387 C 1124.946 1023.475 1127.352 998.578 1126.736 974.654 C 1126.037 947.489 1118.409 905.58 1118.143 880.978 C 1117.774 846.717 1124.546 829.54 1125.018 800.248 C 1125.489 770.956 1123.619 745.555 1124.932 721.232 L 1160.699 766.642 L 1159.249 1035.678 L 1125.898 1049.387 Z " fill="rgb(149,137,112)"/><path d=" M 1069.187 1048.625 L 1068.22 720.47 L 1102.677 714.187 C 1103.574 737.9 1106.969 755.666 1107.403 781.208 C 1107.875 809.061 1102.756 842.572 1102.677 872.6 C 1102.607 898.919 1108.327 930.672 1107.832 958.661 C 1107.382 984.156 1103.34 1008.036 1102.537 1034.916 L 1069.187 1048.625 Z " fill="rgb(149,137,112)"/></g><path d=" M 1212.633 720.401 C 1224.822 721.696 1234.21 729.585 1234.21 739.111 C 1234.21 748.601 1224.894 756.466 1212.773 757.806 C 1208.215 762.589 1200.764 765.707 1192.352 765.707 C 1178.491 765.707 1167.238 757.239 1167.238 746.81 C 1167.238 745.741 1167.356 744.693 1167.583 743.672 C 1167.305 743.04 1167.069 742.394 1166.879 741.735 C 1162.393 746.896 1154.644 750.309 1145.844 750.309 C 1136.496 750.309 1128.334 746.459 1124.011 740.752 C 1119.761 743.233 1114.426 744.71 1108.636 744.71 C 1100.281 744.71 1092.873 741.634 1088.306 736.905 C 1084.644 743.93 1075.548 748.91 1064.918 748.91 C 1056.32 748.91 1048.725 745.652 1044.198 740.688 C 1040.456 742.354 1036.091 743.311 1031.432 743.311 C 1017.596 743.311 1006.359 734.875 1006.317 724.473 C 997.055 721.69 990.504 714.874 990.504 706.917 C 990.504 701.455 993.591 696.53 998.524 693.079 C 997.547 691.064 997.015 688.889 997.015 686.621 C 997.015 677.062 1006.468 669.152 1018.718 667.898 C 1018.515 666.929 1018.409 665.936 1018.409 664.925 C 1018.409 654.496 1029.663 646.028 1043.524 646.028 C 1053.409 646.028 1061.967 650.334 1066.064 656.587 C 1070.192 654.347 1075.258 653.027 1080.731 653.027 C 1088.713 653.027 1095.831 655.835 1100.431 660.209 C 1103.513 659.19 1106.918 658.626 1110.497 658.626 C 1121.598 658.626 1131.027 664.057 1134.341 671.577 C 1137.555 670.452 1141.137 669.824 1144.913 669.824 C 1158.775 669.824 1170.028 678.291 1170.028 688.721 C 1170.028 688.959 1170.022 689.197 1170.01 689.433 L 1170.01 689.433 C 1170.325 689.425 1170.641 689.42 1170.958 689.42 C 1180.691 689.42 1189.138 693.595 1193.306 699.693 C 1204.473 701.61 1212.816 709.135 1212.816 718.115 C 1212.816 718.889 1212.754 719.652 1212.633 720.401 Z " fill-rule="evenodd" fill="rgb(80,174,97)"/><path d=" M 1195.742 641.17 C 1206.909 643.087 1215.252 650.613 1215.252 659.593 C 1215.252 661.598 1214.836 663.531 1214.065 665.345 C 1222.97 668.25 1229.205 674.926 1229.205 682.688 C 1229.205 683.13 1229.185 683.568 1229.145 684.001 L 1229.145 684.001 C 1236.426 687.311 1241.297 693.323 1241.297 700.185 C 1241.297 703.585 1240.102 706.776 1238.009 709.533 L 1238.009 709.533 C 1248.018 712.02 1255.25 719.12 1255.25 727.48 C 1255.25 736.783 1246.296 744.525 1234.523 746.088 C 1230.054 751.313 1222.256 754.775 1213.392 754.775 C 1199.531 754.775 1188.277 746.308 1188.277 735.879 C 1188.277 735.105 1188.339 734.342 1188.463 733.593 L 1188.463 733.593 C 1182.688 732.98 1177.541 730.886 1173.724 727.839 C 1169.13 732.304 1161.938 735.179 1153.861 735.179 C 1139.999 735.179 1128.746 726.712 1128.746 716.282 C 1128.746 714.32 1129.144 712.427 1129.885 710.647 C 1126.042 712.444 1121.508 713.483 1116.654 713.483 C 1111.704 713.483 1107.086 712.403 1103.196 710.539 C 1099.8 717.951 1090.444 723.281 1079.446 723.281 C 1070.896 723.281 1063.338 720.059 1058.801 715.142 C 1057.062 715.431 1055.255 715.582 1053.401 715.582 C 1042.069 715.582 1032.479 709.923 1029.362 702.157 C 1028.399 702.241 1027.419 702.285 1026.426 702.285 C 1012.565 702.285 1001.311 693.818 1001.311 683.388 C 1001.311 673.83 1010.764 665.919 1023.014 664.665 L 1023.014 664.665 L 1023.014 664.665 C 1022.811 663.697 1022.706 662.704 1022.706 661.692 C 1022.706 652.952 1030.61 645.589 1041.329 643.434 L 1041.329 643.434 L 1041.329 643.434 C 1041.861 633.357 1052.901 625.299 1066.424 625.299 C 1073.159 625.299 1079.278 627.298 1083.787 630.552 L 1083.787 630.552 C 1084.422 630.188 1085.081 629.847 1085.761 629.529 L 1085.761 629.529 C 1089.866 623.292 1098.413 619 1108.282 619 C 1115.697 619 1122.366 621.423 1126.964 625.274 C 1131.27 622.662 1136.743 621.1 1142.698 621.1 C 1152.7 621.1 1161.345 625.508 1165.38 631.883 C 1167.897 631.244 1170.592 630.898 1173.394 630.898 C 1183.127 630.898 1191.574 635.072 1195.742 641.17 Z  M 1162.868 669.631 C 1162.907 669.65 1162.946 669.669 1162.984 669.688 C 1162.997 669.65 1163.01 669.612 1163.023 669.575 C 1162.972 669.594 1162.92 669.613 1162.868 669.631 L 1162.868 669.631 L 1162.868 669.631 L 1162.868 669.631 L 1162.868 669.631 L 1162.868 669.631 L 1162.868 669.631 L 1162.868 669.631 L 1162.868 669.631 L 1162.868 669.631 L 1162.868 669.631 L 1162.868 669.631 L 1162.868 669.631 L 1162.868 669.631 L 1162.868 669.631 L 1162.868 669.631 Z " fill-rule="evenodd" fill="rgb(104,191,120)"/></g><g><path d=" M 1512.671 704.299 C 1508.065 708.582 1501.023 711.323 1493.137 711.323 C 1486.116 711.323 1479.764 709.15 1475.204 705.651 C 1470.945 711.53 1462.657 715.522 1453.139 715.522 C 1445.983 715.522 1439.522 713.265 1434.947 709.646 C 1430.569 712.438 1424.905 714.122 1418.723 714.122 C 1414.881 714.122 1411.239 713.472 1407.982 712.309 C 1404.297 713.908 1400.024 714.822 1395.468 714.822 C 1385.209 714.822 1376.378 710.184 1372.482 703.545 C 1367.922 707.048 1361.566 709.223 1354.54 709.223 C 1340.679 709.223 1329.426 700.756 1329.426 690.327 C 1329.426 689.737 1329.462 689.154 1329.532 688.578 C 1319.726 686.004 1312.682 678.981 1312.682 670.73 C 1312.682 662.25 1320.123 655.067 1330.357 652.679 C 1330.356 652.631 1330.356 652.582 1330.356 652.534 C 1330.356 642.104 1341.609 633.637 1355.471 633.637 C 1369.306 633.637 1380.543 642.073 1380.585 652.475 C 1385.238 653.873 1389.207 656.289 1392.002 659.356 C 1395.744 657.69 1400.11 656.733 1404.77 656.733 C 1418.631 656.733 1429.885 665.2 1429.885 675.629 C 1429.885 676.505 1429.805 677.367 1429.653 678.211 C 1432.386 679.208 1434.844 680.567 1436.916 682.204 C 1441.294 679.413 1446.957 677.729 1453.139 677.729 C 1460.16 677.729 1466.512 679.901 1471.072 683.401 C 1475.331 677.522 1483.619 673.53 1493.137 673.53 C 1501.023 673.53 1508.065 676.27 1512.671 680.554 C 1517.276 676.27 1524.318 673.53 1532.204 673.53 C 1546.066 673.53 1557.319 681.997 1557.319 692.426 C 1557.319 702.856 1546.066 711.323 1532.204 711.323 C 1524.318 711.323 1517.276 708.582 1512.671 704.299 Z " fill-rule="evenodd" fill="rgb(80,174,97)"/><path d=" M 1427.382 679.664 L 1485.983 679.664 C 1470.829 856.73 1470.831 967.35 1485.983 1011.515 L 1427.382 1011.515 C 1444.25 983.12 1444.252 872.506 1427.382 679.664 Z " fill="rgb(149,137,112)"/><clipPath id="_clipPath_vapX39I7Kc2rQQXaT5hCsPgnZhC2WvPb"><path d=" M 1427.382 679.664 L 1485.983 679.664 C 1470.829 856.73 1470.831 967.35 1485.983 1011.515 L 1427.382 1011.515 C 1444.25 983.12 1444.252 872.506 1427.382 679.664 Z " fill="rgb(149,137,112)"/></clipPath><g clip-path="url(#_clipPath_vapX39I7Kc2rQQXaT5hCsPgnZhC2WvPb)"><path d=" M 1467.898 1043.101 C 1466.946 1013.084 1469.352 984.241 1468.736 956.526 C 1468.037 925.056 1460.409 876.506 1460.143 848.005 C 1459.774 808.315 1466.546 788.416 1467.018 754.482 C 1467.489 720.549 1465.619 691.123 1466.932 662.945 L 1502.699 715.551 L 1501.249 1027.22 L 1467.898 1043.101 Z " fill="rgb(149,137,112)"/><path d=" M 1411.187 1042.219 L 1410.22 662.063 L 1444.677 654.784 C 1445.574 682.255 1448.969 702.835 1449.403 732.425 C 1449.875 764.692 1444.756 803.514 1444.677 838.3 C 1444.607 868.789 1450.327 905.574 1449.832 937.998 C 1449.382 967.533 1445.34 995.198 1444.537 1026.338 L 1411.187 1042.219 Z " fill="rgb(149,137,112)"/></g><path d=" M 1554.633 664.401 C 1566.822 665.696 1576.21 673.585 1576.21 683.111 C 1576.21 692.601 1566.894 700.466 1554.773 701.806 C 1550.215 706.589 1542.764 709.707 1534.352 709.707 C 1520.491 709.707 1509.238 701.239 1509.238 690.81 C 1509.238 689.741 1509.356 688.693 1509.583 687.672 C 1509.305 687.04 1509.069 686.394 1508.879 685.735 C 1504.393 690.896 1496.644 694.309 1487.844 694.309 C 1478.496 694.309 1470.334 690.459 1466.011 684.752 C 1461.761 687.233 1456.426 688.71 1450.636 688.71 C 1442.281 688.71 1434.873 685.634 1430.306 680.905 C 1426.644 687.93 1417.548 692.91 1406.918 692.91 C 1398.32 692.91 1390.725 689.652 1386.198 684.688 C 1382.456 686.354 1378.091 687.311 1373.432 687.311 C 1359.596 687.311 1348.359 678.875 1348.317 668.473 C 1339.055 665.69 1332.504 658.874 1332.504 650.917 C 1332.504 645.455 1335.591 640.53 1340.524 637.079 C 1339.547 635.064 1339.015 632.889 1339.015 630.621 C 1339.015 621.062 1348.468 613.152 1360.718 611.898 C 1360.515 610.929 1360.409 609.936 1360.409 608.925 C 1360.409 598.496 1371.663 590.028 1385.524 590.028 C 1395.409 590.028 1403.967 594.334 1408.064 600.587 C 1412.192 598.347 1417.258 597.027 1422.731 597.027 C 1430.713 597.027 1437.831 599.835 1442.431 604.209 C 1445.513 603.19 1448.918 602.626 1452.497 602.626 C 1463.598 602.626 1473.027 608.057 1476.341 615.577 C 1479.555 614.452 1483.137 613.824 1486.913 613.824 C 1500.775 613.824 1512.028 622.291 1512.028 632.721 C 1512.028 632.959 1512.022 633.197 1512.01 633.433 L 1512.01 633.433 C 1512.325 633.425 1512.641 633.42 1512.958 633.42 C 1522.691 633.42 1531.138 637.595 1535.306 643.693 C 1546.473 645.61 1554.816 653.135 1554.816 662.115 C 1554.816 662.889 1554.754 663.652 1554.633 664.401 Z " fill-rule="evenodd" fill="rgb(80,174,97)"/><path d=" M 1537.742 585.17 C 1548.909 587.087 1557.252 594.613 1557.252 603.593 C 1557.252 605.598 1556.836 607.531 1556.065 609.345 C 1564.97 612.25 1571.205 618.926 1571.205 626.688 C 1571.205 627.13 1571.185 627.568 1571.145 628.001 L 1571.145 628.001 C 1578.426 631.311 1583.297 637.323 1583.297 644.185 C 1583.297 647.585 1582.102 650.776 1580.009 653.533 L 1580.009 653.533 C 1590.018 656.02 1597.25 663.12 1597.25 671.48 C 1597.25 680.783 1588.296 688.525 1576.523 690.088 C 1572.054 695.313 1564.256 698.775 1555.392 698.775 C 1541.531 698.775 1530.277 690.308 1530.277 679.879 C 1530.277 679.105 1530.339 678.342 1530.463 677.593 L 1530.463 677.593 C 1524.688 676.98 1519.541 674.886 1515.724 671.839 C 1511.13 676.304 1503.938 679.179 1495.861 679.179 C 1481.999 679.179 1470.746 670.712 1470.746 660.282 C 1470.746 658.32 1471.144 656.427 1471.885 654.647 C 1468.042 656.444 1463.508 657.483 1458.654 657.483 C 1453.704 657.483 1449.086 656.403 1445.196 654.539 C 1441.8 661.951 1432.444 667.281 1421.446 667.281 C 1412.896 667.281 1405.338 664.059 1400.801 659.142 C 1399.062 659.431 1397.255 659.582 1395.401 659.582 C 1384.069 659.582 1374.479 653.923 1371.362 646.157 C 1370.399 646.241 1369.419 646.285 1368.426 646.285 C 1354.565 646.285 1343.311 637.818 1343.311 627.388 C 1343.311 617.83 1352.764 609.919 1365.014 608.665 L 1365.014 608.665 L 1365.014 608.665 C 1364.811 607.697 1364.706 606.704 1364.706 605.692 C 1364.706 596.952 1372.61 589.589 1383.329 587.434 L 1383.329 587.434 L 1383.329 587.434 C 1383.861 577.357 1394.901 569.299 1408.424 569.299 C 1415.159 569.299 1421.278 571.298 1425.787 574.552 L 1425.787 574.552 C 1426.422 574.188 1427.081 573.847 1427.761 573.529 L 1427.761 573.529 C 1431.866 567.292 1440.413 563 1450.282 563 C 1457.697 563 1464.366 565.423 1468.964 569.274 C 1473.27 566.662 1478.743 565.1 1484.698 565.1 C 1494.7 565.1 1503.345 569.508 1507.38 575.883 C 1509.897 575.244 1512.592 574.898 1515.394 574.898 C 1525.127 574.898 1533.574 579.072 1537.742 585.17 Z  M 1504.868 613.631 C 1504.907 613.65 1504.946 613.669 1504.984 613.688 C 1504.997 613.65 1505.01 613.612 1505.023 613.575 C 1504.972 613.594 1504.92 613.613 1504.868 613.631 L 1504.868 613.631 L 1504.868 613.631 L 1504.868 613.631 L 1504.868 613.631 L 1504.868 613.631 L 1504.868 613.631 L 1504.868 613.631 L 1504.868 613.631 L 1504.868 613.631 L 1504.868 613.631 L 1504.868 613.631 L 1504.868 613.631 L 1504.868 613.631 L 1504.868 613.631 L 1504.868 613.631 Z " fill-rule="evenodd" fill="rgb(104,191,120)"/></g><g><path d=" M 1806.671 750.299 C 1802.065 754.582 1795.023 757.323 1787.137 757.323 C 1780.116 757.323 1773.764 755.15 1769.204 751.651 C 1764.945 757.53 1756.657 761.522 1747.139 761.522 C 1739.983 761.522 1733.522 759.265 1728.947 755.646 C 1724.569 758.438 1718.905 760.122 1712.723 760.122 C 1708.881 760.122 1705.239 759.472 1701.982 758.309 C 1698.297 759.908 1694.024 760.822 1689.468 760.822 C 1679.209 760.822 1670.378 756.184 1666.482 749.545 C 1661.922 753.048 1655.566 755.223 1648.54 755.223 C 1634.679 755.223 1623.426 746.756 1623.426 736.327 C 1623.426 735.737 1623.462 735.154 1623.532 734.578 C 1613.726 732.004 1606.682 724.981 1606.682 716.73 C 1606.682 708.25 1614.123 701.067 1624.357 698.679 C 1624.356 698.631 1624.356 698.582 1624.356 698.534 C 1624.356 688.104 1635.609 679.637 1649.471 679.637 C 1663.306 679.637 1674.543 688.073 1674.585 698.475 C 1679.238 699.873 1683.207 702.289 1686.002 705.356 C 1689.744 703.69 1694.11 702.733 1698.77 702.733 C 1712.631 702.733 1723.885 711.2 1723.885 721.629 C 1723.885 722.505 1723.805 723.367 1723.653 724.211 C 1726.386 725.208 1728.844 726.567 1730.916 728.204 C 1735.294 725.413 1740.957 723.729 1747.139 723.729 C 1754.16 723.729 1760.512 725.901 1765.072 729.401 C 1769.331 723.522 1777.619 719.53 1787.137 719.53 C 1795.023 719.53 1802.065 722.27 1806.671 726.554 C 1811.276 722.27 1818.318 719.53 1826.204 719.53 C 1840.066 719.53 1851.319 727.997 1851.319 738.426 C 1851.319 748.856 1840.066 757.323 1826.204 757.323 C 1818.318 757.323 1811.276 754.582 1806.671 750.299 Z " fill-rule="evenodd" fill="rgb(80,174,97)"/><path d=" M 1721.382 725.664 L 1779.983 725.664 C 1764.829 882.228 1764.831 980.04 1779.983 1019.091 L 1721.382 1019.091 C 1738.25 993.983 1738.252 896.177 1721.382 725.664 Z " fill="rgb(149,137,112)"/><clipPath id="_clipPath_SE1cjTaoFbA4ckW9XK1NdSPKmHvHdGuS"><path d=" M 1721.382 725.664 L 1779.983 725.664 C 1764.829 882.228 1764.831 980.04 1779.983 1019.091 L 1721.382 1019.091 C 1738.25 993.983 1738.252 896.177 1721.382 725.664 Z " fill="rgb(149,137,112)"/></clipPath><g clip-path="url(#_clipPath_SE1cjTaoFbA4ckW9XK1NdSPKmHvHdGuS)"><path d=" M 1761.898 1047.02 C 1760.946 1020.478 1763.352 994.975 1762.736 970.469 C 1762.037 942.643 1754.409 899.714 1754.143 874.513 C 1753.774 839.419 1760.546 821.824 1761.018 791.819 C 1761.489 761.815 1759.619 735.796 1760.932 710.881 L 1796.699 757.396 L 1795.249 1032.977 L 1761.898 1047.02 Z " fill="rgb(149,137,112)"/><path d=" M 1705.187 1046.239 L 1704.22 710.101 L 1738.677 703.664 C 1739.574 727.955 1742.969 746.152 1743.403 772.316 C 1743.875 800.847 1738.756 835.173 1738.677 865.932 C 1738.607 892.891 1744.327 925.417 1743.832 954.086 C 1743.382 980.202 1739.34 1004.663 1738.537 1032.197 L 1705.187 1046.239 Z " fill="rgb(149,137,112)"/></g><path d=" M 1848.633 710.401 C 1860.822 711.696 1870.21 719.585 1870.21 729.111 C 1870.21 738.601 1860.894 746.466 1848.773 747.806 C 1844.215 752.589 1836.764 755.707 1828.352 755.707 C 1814.491 755.707 1803.238 747.239 1803.238 736.81 C 1803.238 735.741 1803.356 734.693 1803.583 733.672 C 1803.305 733.04 1803.069 732.394 1802.879 731.735 C 1798.393 736.896 1790.644 740.309 1781.844 740.309 C 1772.496 740.309 1764.334 736.459 1760.011 730.752 C 1755.761 733.233 1750.426 734.71 1744.636 734.71 C 1736.281 734.71 1728.873 731.634 1724.306 726.905 C 1720.644 733.93 1711.548 738.91 1700.918 738.91 C 1692.32 738.91 1684.725 735.652 1680.198 730.688 C 1676.456 732.354 1672.091 733.311 1667.432 733.311 C 1653.596 733.311 1642.359 724.875 1642.317 714.473 C 1633.055 711.69 1626.504 704.874 1626.504 696.917 C 1626.504 691.455 1629.591 686.53 1634.524 683.079 C 1633.547 681.064 1633.015 678.889 1633.015 676.621 C 1633.015 667.062 1642.468 659.152 1654.718 657.898 C 1654.515 656.929 1654.409 655.936 1654.409 654.925 C 1654.409 644.496 1665.663 636.028 1679.524 636.028 C 1689.409 636.028 1697.967 640.334 1702.064 646.587 C 1706.192 644.347 1711.258 643.027 1716.731 643.027 C 1724.713 643.027 1731.831 645.835 1736.431 650.209 C 1739.513 649.19 1742.918 648.626 1746.497 648.626 C 1757.598 648.626 1767.027 654.057 1770.341 661.577 C 1773.555 660.452 1777.137 659.824 1780.913 659.824 C 1794.775 659.824 1806.028 668.291 1806.028 678.721 C 1806.028 678.959 1806.022 679.197 1806.01 679.433 L 1806.01 679.433 C 1806.325 679.425 1806.641 679.42 1806.958 679.42 C 1816.691 679.42 1825.138 683.595 1829.306 689.693 C 1840.473 691.61 1848.816 699.135 1848.816 708.115 C 1848.816 708.889 1848.754 709.652 1848.633 710.401 Z " fill-rule="evenodd" fill="rgb(80,174,97)"/><path d=" M 1831.742 631.17 C 1842.909 633.087 1851.252 640.613 1851.252 649.593 C 1851.252 651.598 1850.836 653.531 1850.065 655.345 C 1858.97 658.25 1865.205 664.926 1865.205 672.688 C 1865.205 673.13 1865.185 673.568 1865.145 674.001 L 1865.145 674.001 C 1872.426 677.311 1877.297 683.323 1877.297 690.185 C 1877.297 693.585 1876.102 696.776 1874.009 699.533 L 1874.009 699.533 C 1884.018 702.02 1891.25 709.12 1891.25 717.48 C 1891.25 726.783 1882.296 734.525 1870.523 736.088 C 1866.054 741.313 1858.256 744.775 1849.392 744.775 C 1835.531 744.775 1824.277 736.308 1824.277 725.879 C 1824.277 725.105 1824.339 724.342 1824.463 723.593 L 1824.463 723.593 C 1818.688 722.98 1813.541 720.886 1809.724 717.839 C 1805.13 722.304 1797.938 725.179 1789.861 725.179 C 1775.999 725.179 1764.746 716.712 1764.746 706.282 C 1764.746 704.32 1765.144 702.427 1765.885 700.647 C 1762.042 702.444 1757.508 703.483 1752.654 703.483 C 1747.704 703.483 1743.086 702.403 1739.196 700.539 C 1735.8 707.951 1726.444 713.281 1715.446 713.281 C 1706.896 713.281 1699.338 710.059 1694.801 705.142 C 1693.062 705.431 1691.255 705.582 1689.401 705.582 C 1678.069 705.582 1668.479 699.923 1665.362 692.157 C 1664.399 692.241 1663.419 692.285 1662.426 692.285 C 1648.565 692.285 1637.311 683.818 1637.311 673.388 C 1637.311 663.83 1646.764 655.919 1659.014 654.665 L 1659.014 654.665 L 1659.014 654.665 C 1658.811 653.697 1658.706 652.704 1658.706 651.692 C 1658.706 642.952 1666.61 635.589 1677.329 633.434 L 1677.329 633.434 L 1677.329 633.434 C 1677.861 623.357 1688.901 615.299 1702.424 615.299 C 1709.159 615.299 1715.278 617.298 1719.787 620.552 L 1719.787 620.552 C 1720.422 620.188 1721.081 619.847 1721.761 619.529 L 1721.761 619.529 C 1725.866 613.292 1734.413 609 1744.282 609 C 1751.697 609 1758.366 611.423 1762.964 615.274 C 1767.27 612.662 1772.743 611.1 1778.698 611.1 C 1788.7 611.1 1797.345 615.508 1801.38 621.883 C 1803.897 621.244 1806.592 620.898 1809.394 620.898 C 1819.127 620.898 1827.574 625.072 1831.742 631.17 Z  M 1798.868 659.631 C 1798.907 659.65 1798.946 659.669 1798.984 659.688 C 1798.997 659.65 1799.01 659.612 1799.023 659.575 C 1798.972 659.594 1798.92 659.613 1798.868 659.631 L 1798.868 659.631 L 1798.868 659.631 L 1798.868 659.631 L 1798.868 659.631 L 1798.868 659.631 L 1798.868 659.631 L 1798.868 659.631 L 1798.868 659.631 L 1798.868 659.631 L 1798.868 659.631 L 1798.868 659.631 L 1798.868 659.631 L 1798.868 659.631 L 1798.868 659.631 L 1798.868 659.631 Z " fill-rule="evenodd" fill="rgb(104,191,120)"/></g></g></svg>